<?xml version="1.0" encoding="iso-8859-1"?>
<!-- Generator: Adobe Illustrator 19.0.0, SVG Export Plug-In . SVG Version: 6.00 Build 0)  -->
<svg xmlns="http://www.w3.org/2000/svg" xmlns:xlink="http://www.w3.org/1999/xlink" version="1.1" id="Capa_1" x="0px" y="0px" viewBox="0 0 511.999 511.999" style="enable-background:new 0 0 511.999 511.999;" xml:space="preserve" width="512px" height="512px">
<g>
	<g>
		<path d="M436.438,84.877l-71.082-71.009C356.404,4.925,344.506,0,331.854,0H109.063C82.926,0,61.661,21.265,61.661,47.402v417.195    c0,26.138,21.265,47.402,47.402,47.402h293.873c26.138,0,47.402-21.265,47.402-47.402V118.412    C450.339,105.742,445.402,93.832,436.438,84.877z M360.263,51.177l39.172,39.132h-39.172V51.177z M420.345,464.598    c0,9.598-7.81,17.408-17.409,17.408H109.063c-9.599,0-17.408-7.81-17.408-17.408V47.402c0-9.599,7.81-17.408,17.408-17.408    h221.206v75.312c0,8.282,6.715,14.997,14.997,14.997h75.079V464.598z" fill="#0073e6"/>
	</g>
</g>
<g>
	<g>
		<path d="M213.545,426.012l-25.137-82c-0.718-2.24-2.353-3.965-4.906-5.175c-2.555-1.21-5.491-1.815-8.805-1.815    c-3.316,0-6.251,0.605-8.805,1.815c-2.555,1.21-4.19,2.936-4.907,5.175l-25.003,82c-0.181,0.719-0.269,1.21-0.269,1.479    c0,2.332,1.456,4.348,4.369,6.049c2.911,1.704,5.936,2.555,9.073,2.555c3.852,0,6.138-1.298,6.856-3.898l4.57-16.804h28.365    l4.57,16.804c0.716,2.601,3.001,3.898,6.856,3.898c3.136,0,6.161-0.851,9.074-2.555c2.911-1.702,4.369-3.717,4.369-6.049    C213.814,427.221,213.724,426.73,213.545,426.012z M164.882,399.261l9.813-36.027l9.813,36.027H164.882z" fill="#0073e6"/>
	</g>
</g>
<g>
	<g>
		<path d="M270.877,398.583c-1.3-1.61-2.801-2.414-4.503-2.414h-12.904v-13.533c0-1.786-0.807-3.358-2.42-4.722    c-1.613-1.361-3.629-2.044-6.049-2.044c-2.332,0-4.348,0.683-6.049,2.044c-1.704,1.364-2.555,2.936-2.555,4.722v13.533h-13.04    c-1.882,0-3.407,0.784-4.57,2.351c-1.166,1.567-1.748,3.493-1.748,5.778c0,2.372,0.582,4.297,1.748,5.78    c1.164,1.483,2.688,2.223,4.57,2.223h13.039v13.674c0,1.975,0.828,3.57,2.487,4.793c1.658,1.223,3.696,1.832,6.117,1.832    c2.508,0,4.547-0.609,6.117-1.832c1.567-1.223,2.353-2.818,2.353-4.793V412.3h12.904c1.702,0,3.203-0.76,4.503-2.286    c1.298-1.525,1.949-3.43,1.949-5.717C272.825,402.096,272.174,400.192,270.877,398.583z" fill="#0073e6"/>
	</g>
</g>
<g>
	<g>
		<path d="M320.212,264.176H138.626c-8.282,0-14.997,6.715-14.997,14.997c0,8.282,6.715,14.997,14.997,14.997h181.586    c8.282,0,14.997-6.715,14.997-14.997C335.209,270.891,328.495,264.176,320.212,264.176z" fill="#0073e6"/>
	</g>
</g>
<g>
	<g>
		<path d="M373.373,211.008H138.626c-8.282,0-14.997,6.715-14.997,14.997s6.715,14.997,14.997,14.997h234.747    c8.282,0,14.997-6.715,14.997-14.997S381.655,211.008,373.373,211.008z" fill="#0073e6"/>
	</g>
</g>
<g>
	<g>
		<path d="M253.488,157.132H138.626c-8.282,0-14.997,6.715-14.997,14.997s6.715,14.997,14.997,14.997h114.862    c8.282,0,14.997-6.715,14.997-14.997S261.77,157.132,253.488,157.132z" fill="#0073e6"/>
	</g>
</g>
<g>
</g>
<g>
</g>
<g>
</g>
<g>
</g>
<g>
</g>
<g>
</g>
<g>
</g>
<g>
</g>
<g>
</g>
<g>
</g>
<g>
</g>
<g>
</g>
<g>
</g>
<g>
</g>
<g>
</g>
</svg>
