<?xml version="1.0" encoding="iso-8859-1"?>
<!-- Generator: Adobe Illustrator 16.0.0, SVG Export Plug-In . SVG Version: 6.00 Build 0)  -->
<!DOCTYPE svg PUBLIC "-//W3C//DTD SVG 1.1//EN" "http://www.w3.org/Graphics/SVG/1.1/DTD/svg11.dtd">
<svg version="1.1" id="Capa_1" xmlns="http://www.w3.org/2000/svg" xmlns:xlink="http://www.w3.org/1999/xlink" x="0px" y="0px"
	 width="30.083px" height="30.083px" viewBox="0 0 30.083 30.083" style="enable-background:new 0 0 30.083 30.083;"
	 xml:space="preserve">
<g>
	<g>
		<rect x="24.998" y="11.885" width="2.902" height="0.699"/>
		<rect x="19.432" y="11.885" width="2.901" height="0.699"/>
		<rect x="13.439" y="11.885" width="2.902" height="0.699"/>
		<rect x="7.898" y="11.885" width="2.902" height="0.699"/>
		<rect x="1.907" y="11.885" width="2.902" height="0.699"/>
		<path d="M26.45,3.851V2.697h-2.075v1.154h-3.294V2.697h-2.074v1.154h-2.44V2.697h-2.073v1.154h-3.417V2.697H9.002v1.154H5.708
			V2.697H3.634v1.154H0v23.536h30.083V3.851H26.45z M3.634,5.14v1.345C3.44,6.722,3.319,7.022,3.319,7.352
			c0,0.76,0.617,1.375,1.376,1.375c0.76,0,1.376-0.616,1.376-1.375c0-0.358-0.141-0.681-0.364-0.926V5.14H9v1.51
			C8.794,6.891,8.663,7.202,8.663,7.546c0,0.76,0.616,1.376,1.376,1.376c0.76,0,1.377-0.616,1.377-1.376
			c0-0.344-0.131-0.655-0.34-0.896V5.14h3.417v1.51c-0.208,0.241-0.339,0.552-0.339,0.896c0,0.76,0.616,1.376,1.376,1.376
			c0.76,0,1.376-0.616,1.376-1.376c0-0.344-0.131-0.655-0.34-0.896V5.14h2.44v1.51c-0.209,0.241-0.339,0.552-0.339,0.896
			c0,0.76,0.616,1.376,1.375,1.376c0.762,0,1.377-0.616,1.377-1.376c0-0.344-0.13-0.655-0.339-0.896V5.14h3.294v1.51
			c-0.208,0.241-0.339,0.552-0.339,0.896c0,0.76,0.616,1.376,1.377,1.376c0.76,0,1.376-0.616,1.376-1.376
			c0-0.344-0.131-0.655-0.339-0.896V5.14h2.344v8.629H23.91h-0.321h-5.54h-0.152h-5.54h-0.322H6.497H6.344H1.29V5.14H3.634z
			 M1.29,17.102h4.885v2.688H1.29V17.102z M6.666,17.102h5.368v2.688H6.666V17.102z M12.356,17.102L12.356,17.102h5.369v2.688
			h-5.368l0,0L12.356,17.102L12.356,17.102z M18.218,17.102h5.37v2.688h-5.37V17.102z M23.91,17.102h4.884v2.688H23.91V17.102z
			 M28.794,16.779h-4.883v-2.688h4.883V16.779z M23.588,16.779h-5.37v-2.688h5.37V16.779z M17.727,16.779h-5.37v-2.688h5.37V16.779z
			 M12.035,16.779L12.035,16.779H6.667v-2.688h5.368V16.779z M6.174,16.779H1.29v-2.688h4.885L6.174,16.779L6.174,16.779z
			 M1.29,20.112h4.885V22.8H1.29V20.112z M6.667,20.112h5.367h0.001V22.8H6.667V20.112z M12.357,20.112h5.37V22.8h-5.37V20.112z
			 M18.218,20.112h5.37V22.8h-5.37V20.112z M23.911,20.112h4.883V22.8h-4.883V20.112z M1.29,26.097v-2.976h5.055h0.153h5.538h0.322
			h5.541h0.151h5.54h0.321h4.884v2.976H1.29z"/>
	</g>
</g>
<g>
</g>
<g>
</g>
<g>
</g>
<g>
</g>
<g>
</g>
<g>
</g>
<g>
</g>
<g>
</g>
<g>
</g>
<g>
</g>
<g>
</g>
<g>
</g>
<g>
</g>
<g>
</g>
<g>
</g>
</svg>
